<?xml version="1.0" encoding="iso-8859-1"?>
<!-- Generator: Adobe Illustrator 19.0.0, SVG Export Plug-In . SVG Version: 6.00 Build 0)  -->
<svg version="1.1" id="Capa_1" xmlns="http://www.w3.org/2000/svg" xmlns:xlink="http://www.w3.org/1999/xlink" x="0px" y="0px"
	 viewBox="0 0 512 512" style="enable-background:new 0 0 512 512;" xml:space="preserve">
<linearGradient id="SVGID_1_" gradientUnits="userSpaceOnUse" x1="256" y1="509" x2="256" y2="-1.04" gradientTransform="matrix(1 0 0 -1 0 514)">
	<stop  offset="0.005" style="stop-color:#FFE5AE"/>
	<stop  offset="1" style="stop-color:#FF992D"/>
</linearGradient>
<path style="fill:url(#SVGID_1_);" d="M512,118.23v275.54C512,459.07,459.07,512,393.77,512H118.23C52.93,512,0,459.07,0,393.77
	V118.23C0,52.93,52.93,0,118.23,0h275.54C459.07,0,512,52.93,512,118.23z"/>
<linearGradient id="SVGID_2_" gradientUnits="userSpaceOnUse" x1="256" y1="505.078" x2="256" y2="3.01" gradientTransform="matrix(1 0 0 -1 0 514)">
	<stop  offset="0" style="stop-color:#FFD372"/>
	<stop  offset="1" style="stop-color:#FF7900"/>
</linearGradient>
<path style="fill:url(#SVGID_2_);" d="M118.23,508C55.243,508,4,456.757,4,393.77V118.23C4,55.243,55.243,4,118.23,4h275.54
	C456.757,4,508,55.243,508,118.23v275.54C508,456.757,456.757,508,393.77,508H118.23z"/>
<path style="opacity:0.3;fill:#1A1A1A;enable-background:new    ;" d="M416.653,242.862l-16.383-2.853
	c-7.552-1.315-13.912-6.501-16.543-13.701c-1.267-3.468-2.678-6.868-4.224-10.192c-3.24-6.965-2.431-15.144,1.989-21.427
	l9.571-13.607c3.183-4.526,2.651-10.685-1.262-14.597l-24.141-24.141c-3.912-3.912-10.071-4.445-14.597-1.262l-13.607,9.571
	c-6.284,4.42-14.462,5.229-21.427,1.989c-3.324-1.546-6.723-2.956-10.192-4.224c-7.2-2.631-12.386-8.992-13.701-16.543
	l-2.853-16.383c-0.949-5.451-5.681-9.43-11.214-9.43h-34.14c-5.533,0-10.264,3.979-11.214,9.43l-2.853,16.383
	c-1.315,7.552-6.501,13.912-13.701,16.543c-3.468,1.267-6.868,2.678-10.192,4.224c-6.965,3.24-15.144,2.431-21.427-1.989
	l-13.607-9.571c-4.526-3.183-10.685-2.651-14.597,1.262l-24.141,24.141c-3.912,3.912-4.445,10.072-1.262,14.597l9.571,13.607
	c4.42,6.283,5.229,14.462,1.989,21.427c-1.546,3.324-2.956,6.723-4.224,10.192c-2.631,7.2-8.992,12.386-16.543,13.701l-16.383,2.853
	c-5.451,0.949-9.43,5.681-9.43,11.214v34.14c0,5.533,3.979,10.264,9.43,11.214l16.383,2.853c7.552,1.315,13.912,6.501,16.543,13.701
	c1.267,3.468,2.678,6.868,4.224,10.192c3.24,6.965,2.431,15.144-1.989,21.427l-9.571,13.607c-3.183,4.526-2.651,10.685,1.262,14.597
	l24.141,24.141c3.912,3.912,10.072,4.445,14.597,1.262l13.607-9.571c6.284-4.42,14.462-5.229,21.427-1.989
	c3.324,1.546,6.723,2.956,10.192,4.224c7.2,2.631,12.386,8.992,13.701,16.543l2.853,16.383c0.949,5.451,5.681,9.43,11.214,9.43
	h34.14c5.533,0,10.264-3.979,11.214-9.43l2.853-16.383c1.315-7.552,6.501-13.912,13.701-16.543
	c3.468-1.267,6.868-2.678,10.192-4.224c6.965-3.24,15.144-2.431,21.427,1.989l13.607,9.571c4.526,3.183,10.685,2.651,14.597-1.262
	l24.141-24.141c3.912-3.912,4.445-10.071,1.262-14.597l-9.571-13.607c-4.42-6.284-5.229-14.462-1.989-21.427
	c1.546-3.324,2.956-6.723,4.224-10.192c2.631-7.2,8.992-12.386,16.543-13.701l16.383-2.853c5.451-0.949,9.43-5.681,9.43-11.214
	v-34.14C426.082,248.543,422.103,243.811,416.653,242.862z"/>
<linearGradient id="SVGID_3_" gradientUnits="userSpaceOnUse" x1="190.9225" y1="323.0825" x2="452.0825" y2="61.9225" gradientTransform="matrix(1 0 0 -1 0 514)">
	<stop  offset="0" style="stop-color:#EA5918"/>
	<stop  offset="1" style="stop-color:#FF7945;stop-opacity:0"/>
</linearGradient>
<path style="opacity:0.5;fill:url(#SVGID_3_);enable-background:new    ;" d="M512,269.83v123.94C512,459.07,459.07,512,393.77,512
	H269.84l-4-4L131.76,373.91l23.56-23.56l-60.83-60.84L281.884,86.392l68.476,68.918l23.56-23.56L508,265.83L512,269.83z"/>
<linearGradient id="SVGID_4_" gradientUnits="userSpaceOnUse" x1="256.001" y1="411.66" x2="256.001" y2="93.13" gradientTransform="matrix(1 0 0 -1 0 514)">
	<stop  offset="0" style="stop-color:#9C9C9C"/>
	<stop  offset="1" style="stop-color:#CCCCCC"/>
</linearGradient>
<path style="fill:url(#SVGID_4_);" d="M411.653,236.425l-16.382-2.853c-7.552-1.315-13.912-6.501-16.543-13.701
	c-1.267-3.468-2.678-6.868-4.224-10.192c-3.24-6.965-2.431-15.144,1.989-21.427l9.571-13.607c1.526-2.17,2.189-4.715,2.044-7.208
	h0.024v-16.513h-12.455l-15.016-15.016c-3.912-3.912-10.071-4.445-14.597-1.262l-13.607,9.571
	c-6.283,4.42-14.462,5.229-21.427,1.989c-3.324-1.546-6.724-2.956-10.192-4.224c-7.2-2.631-12.386-8.992-13.701-16.543
	l-2.853-16.383c-0.949-5.451-5.681-9.43-11.213-9.43h-34.14c-5.533,0-10.264,3.979-11.213,9.43l-2.853,16.383
	c-1.315,7.552-6.501,13.912-13.701,16.543c-3.468,1.267-6.868,2.678-10.192,4.224c-6.965,3.24-15.144,2.431-21.427-1.989
	l-13.607-9.571c-4.526-3.183-10.685-2.651-14.597,1.262l-15.034,15.034H123.86v16.235h0.045c-0.209,2.576,0.453,5.223,2.033,7.468
	l9.571,13.607c4.42,6.283,5.229,14.462,1.989,21.427c-1.546,3.324-2.956,6.723-4.224,10.192c-2.631,7.2-8.992,12.386-16.543,13.701
	l-16.383,2.853c-5.451,0.949-9.43,5.681-9.43,11.214v34.14c0,5.533,3.979,10.264,9.429,11.214l16.383,2.853
	c7.552,1.315,13.912,6.501,16.543,13.701c1.267,3.468,2.678,6.868,4.224,10.192c3.24,6.965,2.431,15.144-1.989,21.427l-2.913,4.142
	h-8.735v16.235h0.014c0.057,2.858,1.178,5.681,3.325,7.827l24.141,24.141c3.912,3.912,10.071,4.445,14.597,1.261l13.607-9.571
	c6.283-4.42,14.462-5.229,21.427-1.989c3.324,1.546,6.724,2.956,10.192,4.224c7.2,2.631,12.385,8.992,13.701,16.543l2.853,16.383
	c0.949,5.451,5.681,9.43,11.214,9.43h34.14c5.533,0,10.264-3.979,11.214-9.43l2.853-16.383c1.315-7.552,6.501-13.912,13.701-16.543
	c3.468-1.268,6.868-2.678,10.192-4.224c6.965-3.24,15.144-2.431,21.427,1.989l13.607,9.571c4.526,3.183,10.685,2.651,14.597-1.262
	l24.141-24.141c2.081-2.081,3.195-4.798,3.313-7.566h0.017v-0.38c0.001-0.066,0.001-0.132,0-0.197V345.29h-8.738l-2.901-4.124
	c-4.419-6.283-5.229-14.462-1.989-21.427c1.546-3.324,2.956-6.723,4.224-10.192c2.631-7.2,8.992-12.386,16.543-13.701l16.382-2.853
	c5.451-0.949,9.43-5.681,9.43-11.214v-34.14C421.082,242.106,417.104,237.374,411.653,236.425z"/>
<path style="fill:#FFFFFF;" d="M411.653,219.008l-16.383-2.853c-7.552-1.315-13.912-6.501-16.543-13.701
	c-1.267-3.468-2.678-6.868-4.224-10.192c-3.24-6.965-2.431-15.144,1.989-21.427l9.571-13.607c3.183-4.526,2.651-10.685-1.262-14.597
	L360.66,118.49c-3.912-3.912-10.071-4.445-14.597-1.262l-13.607,9.571c-6.283,4.42-14.462,5.229-21.427,1.989
	c-3.324-1.546-6.723-2.956-10.192-4.224c-7.2-2.631-12.386-8.992-13.701-16.543l-2.853-16.383c-0.949-5.451-5.681-9.43-11.214-9.43
	h-34.14c-5.533,0-10.264,3.979-11.214,9.43l-2.853,16.383c-1.315,7.552-6.501,13.912-13.701,16.543
	c-3.468,1.267-6.868,2.678-10.192,4.224c-6.965,3.24-15.144,2.431-21.427-1.989l-13.607-9.571
	c-4.526-3.183-10.685-2.651-14.597,1.262l-24.141,24.141c-3.912,3.912-4.445,10.072-1.262,14.597l9.571,13.607
	c4.42,6.283,5.229,14.462,1.989,21.427c-1.546,3.324-2.956,6.723-4.224,10.192c-2.631,7.2-8.992,12.386-16.543,13.701l-16.383,2.853
	c-5.451,0.949-9.43,5.681-9.43,11.214v34.14c0,5.533,3.979,10.264,9.43,11.214l16.383,2.853c7.552,1.315,13.912,6.501,16.543,13.701
	c1.267,3.468,2.678,6.868,4.224,10.192c3.24,6.965,2.431,15.144-1.989,21.427l-9.571,13.607c-3.183,4.526-2.651,10.685,1.261,14.597
	l24.141,24.141c3.912,3.912,10.072,4.445,14.597,1.262l13.607-9.571c6.284-4.42,14.462-5.229,21.427-1.989
	c3.324,1.546,6.723,2.956,10.192,4.224c7.2,2.631,12.386,8.992,13.701,16.543l2.853,16.383c0.949,5.451,5.681,9.43,11.214,9.43
	h34.14c5.533,0,10.264-3.979,11.214-9.43l2.853-16.383c1.315-7.552,6.501-13.912,13.701-16.543
	c3.468-1.267,6.868-2.678,10.192-4.224c6.965-3.24,15.144-2.431,21.427,1.989l13.607,9.571c4.526,3.183,10.685,2.651,14.597-1.262
	l24.141-24.141c3.912-3.912,4.445-10.071,1.262-14.597l-9.571-13.607c-4.42-6.283-5.229-14.462-1.989-21.427
	c1.546-3.324,2.956-6.723,4.224-10.192c2.631-7.2,8.992-12.386,16.543-13.701l16.383-2.853c5.451-0.949,9.43-5.681,9.43-11.214
	v-34.14C421.082,224.688,417.103,219.957,411.653,219.008z"/>
<linearGradient id="SVGID_5_" gradientUnits="userSpaceOnUse" x1="255.999" y1="427.11" x2="255.999" y2="112.43" gradientTransform="matrix(1 0 0 -1 0 514)">
	<stop  offset="0.005" style="stop-color:#F2F2F2"/>
	<stop  offset="1" style="stop-color:#E6E6E6"/>
</linearGradient>
<path style="fill:url(#SVGID_5_);" d="M238.93,410.374c-4.572,0-8.459-3.269-9.244-7.773l-2.853-16.383
	c-1.445-8.302-7.188-15.229-14.984-18.078c-3.39-1.239-6.766-2.638-10.035-4.159c-3.082-1.433-6.375-2.16-9.79-2.16
	c-4.894,0-9.608,1.496-13.632,4.327l-13.606,9.57c-1.589,1.118-3.455,1.708-5.395,1.708c-2.508,0-4.866-0.976-6.638-2.748
	l-24.141-24.14c-3.232-3.233-3.669-8.293-1.04-12.032l9.571-13.607c4.85-6.895,5.68-15.869,2.167-23.421
	c-1.524-3.276-2.923-6.653-4.159-10.034c-2.85-7.798-9.777-13.54-18.079-14.985l-16.383-2.853c-4.504-0.785-7.772-4.672-7.772-9.243
	v-34.14c0-4.571,3.269-8.459,7.773-9.244l16.382-2.853c8.302-1.446,15.229-7.188,18.079-14.985
	c1.235-3.381,2.635-6.758,4.159-10.035c3.513-7.552,2.683-16.526-2.167-23.421l-9.571-13.607c-2.63-3.739-2.192-8.8,1.04-12.033
	l24.14-24.14c1.772-1.772,4.13-2.748,6.639-2.748c1.94,0,3.805,0.59,5.394,1.708l13.606,9.571c4.025,2.831,8.739,4.327,13.632,4.327
	c3.415,0,6.708-0.727,9.79-2.16c3.271-1.521,6.646-2.92,10.035-4.159c7.797-2.849,13.539-9.776,14.984-18.079l2.853-16.382
	c0.785-4.504,4.672-7.773,9.244-7.773h34.14c4.571,0,8.458,3.269,9.242,7.773l2.854,16.382c1.446,8.302,7.188,15.23,14.985,18.079
	c3.386,1.238,6.763,2.637,10.034,4.159c3.082,1.434,6.376,2.16,9.79,2.16c4.894,0,9.607-1.497,13.631-4.327l13.607-9.571
	c1.589-1.118,3.454-1.708,5.395-1.708c2.508,0,4.865,0.976,6.638,2.748l24.141,24.141c3.233,3.232,3.671,8.292,1.04,12.032
	l-9.57,13.608c-4.85,6.894-5.68,15.869-2.167,23.421c1.521,3.271,2.921,6.647,4.158,10.034c2.85,7.797,9.777,13.539,18.08,14.985
	l16.382,2.853c4.504,0.785,7.772,4.672,7.772,9.244v34.14c0,4.571-3.269,8.458-7.772,9.243l-16.382,2.853
	c-8.303,1.446-15.23,7.188-18.08,14.984c-1.237,3.386-2.636,6.763-4.158,10.035c-3.513,7.552-2.683,16.526,2.167,23.421l9.57,13.606
	c2.63,3.74,2.192,8.8-1.04,12.032l-24.141,24.141c-1.772,1.772-4.13,2.748-6.638,2.748c-0.001,0,0,0-0.001,0
	c-1.939,0-3.805-0.591-5.394-1.708l-13.606-9.571c-4.024-2.831-8.738-4.327-13.632-4.327c-3.415,0-6.708,0.727-9.79,2.16
	c-3.271,1.522-6.647,2.921-10.035,4.159c-7.796,2.849-13.538,9.776-14.984,18.078l-2.854,16.383
	c-0.784,4.504-4.671,7.773-9.242,7.773L238.93,410.374L238.93,410.374z"/>
<path style="fill:#8F8F8F;" d="M346.234,252.971c-2.934-47.294-42.201-84.75-90.234-84.75c-48.034,0-87.3,37.456-90.234,84.75
	c-0.116-1.88-0.196-8.584-0.196,0c0,49.943,40.487,84.75,90.43,84.75c49.937,0,90.419-40.476,90.43-90.411
	C346.429,249.213,346.35,251.097,346.234,252.971z"/>
<g>
	<path style="fill:#5C5C5C;" d="M256,168.221c48.034,0,87.3,37.456,90.234,84.75c0.117-1.88,0.196-3.77,0.196-5.68
		c0-49.943-40.487-90.43-90.43-90.43s-90.43,40.487-90.43,90.43c0,1.909,0.079,3.8,0.196,5.68
		C168.7,205.676,207.967,168.221,256,168.221z"/>
	<circle style="fill:#5C5C5C;" cx="256" cy="256.38" r="57.17"/>
</g>
<linearGradient id="SVGID_6_" gradientUnits="userSpaceOnUse" x1="256" y1="323.88" x2="256" y2="209.54" gradientTransform="matrix(1 0 0 -1 0 514)">
	<stop  offset="0.005" style="stop-color:#F2F2F2"/>
	<stop  offset="1" style="stop-color:#E6E6E6"/>
</linearGradient>
<circle style="fill:url(#SVGID_6_);" cx="256" cy="247.29" r="57.17"/>
<circle style="fill:#5C5C5C;" cx="256" cy="247.29" r="23.855"/>
<g>
</g>
<g>
</g>
<g>
</g>
<g>
</g>
<g>
</g>
<g>
</g>
<g>
</g>
<g>
</g>
<g>
</g>
<g>
</g>
<g>
</g>
<g>
</g>
<g>
</g>
<g>
</g>
<g>
</g>
</svg>
