<?xml version="1.0" encoding="iso-8859-1"?>
<!-- Generator: Adobe Illustrator 19.0.0, SVG Export Plug-In . SVG Version: 6.00 Build 0)  -->
<svg version="1.1" id="Layer_1" xmlns="http://www.w3.org/2000/svg" xmlns:xlink="http://www.w3.org/1999/xlink" x="0px" y="0px"
	 viewBox="0 0 509.287 509.287" style="enable-background:new 0 0 509.287 509.287;" xml:space="preserve">
<circle style="fill:#4B5AA7;" cx="254.644" cy="254.644" r="254.644"/>
<rect x="83.751" y="84.09" style="fill:#F1F3F7;" width="341.446" height="341.446"/>
<polygon style="fill:#FCFCFD;" points="425.536,425.875 121.388,397.393 83.751,168.519 83.751,84.09 425.536,84.09 "/>
<rect x="83.751" y="84.09" style="fill:#73D658;" width="341.446" height="84.09"/>
<path style="fill:#F0582F;" d="M260.069,370.946c-9.494,0-17.293-7.799-17.293-17.293v-106.13h-7.121
	c-9.494,0-17.293-7.799-17.293-17.293c0-9.494,7.799-17.293,17.293-17.293h24.413c9.494,0,17.293,7.799,17.293,17.293v123.423
	C277.362,363.147,269.563,370.946,260.069,370.946z"/>
<path style="fill:#333842;" d="M183.438,106.13H146.14c-3.391,0-6.442,2.713-6.442,6.442c0,3.391,2.713,6.442,6.442,6.442h37.298
	c3.391,0,6.442-2.713,6.442-6.442C189.881,108.842,186.829,106.13,183.438,106.13z"/>
<rect x="150.548" y="56.286" style="fill:#F1F3F7;" width="28.482" height="55.947"/>
<path style="fill:#333842;" d="M363.147,106.13h-37.298c-3.391,0-6.442,2.713-6.442,6.442c0,3.391,2.713,6.442,6.442,6.442h37.298
	c3.391,0,6.442-2.713,6.442-6.442C369.589,108.842,366.538,106.13,363.147,106.13z"/>
<rect x="330.257" y="56.286" style="fill:#F1F3F7;" width="28.482" height="55.947"/>
<g>
</g>
<g>
</g>
<g>
</g>
<g>
</g>
<g>
</g>
<g>
</g>
<g>
</g>
<g>
</g>
<g>
</g>
<g>
</g>
<g>
</g>
<g>
</g>
<g>
</g>
<g>
</g>
<g>
</g>
</svg>
