<?xml version="1.0" encoding="iso-8859-1"?>
<!-- Generator: Adobe Illustrator 19.0.0, SVG Export Plug-In . SVG Version: 6.00 Build 0)  -->
<svg version="1.1" id="Layer_1" xmlns="http://www.w3.org/2000/svg" xmlns:xlink="http://www.w3.org/1999/xlink" x="0px" y="0px"
	 viewBox="0 0 508 508" style="enable-background:new 0 0 508 508;" xml:space="preserve">
<circle style="fill:#FFD05B;" cx="254" cy="254" r="254"/>
<path style="fill:#F9B54C;" d="M30.5,374.5C73.4,454,157.4,508,254,508s180.6-54,223.5-133.5H30.5z"/>
<path style="fill:#FF7058;" d="M434.9,317H150.7c-0.8,0-1.4-0.6-1.4-1.4v-146c0-0.8,0.6-1.4,1.4-1.4h284.2c0.8,0,1.4,0.6,1.4,1.4
	v145.9C436.3,316.3,435.7,317,434.9,317z"/>
<path style="fill:#2B3B4E;" d="M423.7,317H56.4c-0.3,0-0.6,0.3-0.6,0.6v22.5c0,0.3,0.3,0.6,0.6,0.6h367.3c0.3,0,0.6-0.3,0.6-0.6
	v-22.5C424.4,317.3,424.1,317,423.7,317z"/>
<circle style="fill:#324A5E;" cx="383.6" cy="349.2" r="25.3"/>
<circle style="fill:#E6E9EE;" cx="383.6" cy="349.2" r="15.2"/>
<circle style="fill:#324A5E;" cx="321.7" cy="349.2" r="25.3"/>
<circle style="fill:#E6E9EE;" cx="321.7" cy="349.2" r="15.2"/>
<circle style="fill:#324A5E;" cx="88.7" cy="349.2" r="25.3"/>
<g>
	<circle style="fill:#E6E9EE;" cx="88.7" cy="349.2" r="15.2"/>
	<path style="fill:#E6E9EE;" d="M79,219.1l-17.2,51.3c-0.6,1.8-0.9,3.7-0.9,5.6v41h88.3V216.5H82.5C80.9,216.5,79.5,217.5,79,219.1z
		"/>
</g>
<polygon style="fill:#54C0EB;" points="141.8,272 141.8,224 85.2,224 69.2,272 "/>
<path style="fill:#324A5E;" d="M123.7,281.8h17.5c0.3,0,0.5-0.2,0.5-0.5v-4.2h-18.5v4.2C123.2,281.5,123.4,281.8,123.7,281.8z"/>
<g>
	<rect x="165.4" y="185.4" style="fill:#F1543F;" width="10.4" height="114.3"/>
	<rect x="192.5" y="185.4" style="fill:#F1543F;" width="10.4" height="114.3"/>
	<rect x="219.7" y="185.4" style="fill:#F1543F;" width="10.4" height="114.3"/>
	<rect x="246.9" y="185.4" style="fill:#F1543F;" width="10.4" height="114.3"/>
	<rect x="274" y="185.4" style="fill:#F1543F;" width="10.4" height="114.3"/>
	<rect x="301.2" y="185.4" style="fill:#F1543F;" width="10.4" height="114.3"/>
	<rect x="328.3" y="185.4" style="fill:#F1543F;" width="10.4" height="114.3"/>
	<rect x="355.5" y="185.4" style="fill:#F1543F;" width="10.4" height="114.3"/>
	<rect x="382.7" y="185.4" style="fill:#F1543F;" width="10.4" height="114.3"/>
	<rect x="409.8" y="185.4" style="fill:#F1543F;" width="10.4" height="114.3"/>
</g>
<g>
</g>
<g>
</g>
<g>
</g>
<g>
</g>
<g>
</g>
<g>
</g>
<g>
</g>
<g>
</g>
<g>
</g>
<g>
</g>
<g>
</g>
<g>
</g>
<g>
</g>
<g>
</g>
<g>
</g>
</svg>
