<?xml version="1.0" encoding="iso-8859-1"?>
<!-- Generator: Adobe Illustrator 19.0.0, SVG Export Plug-In . SVG Version: 6.00 Build 0)  -->
<svg version="1.1" id="Layer_1" xmlns="http://www.w3.org/2000/svg" xmlns:xlink="http://www.w3.org/1999/xlink" x="0px" y="0px"
	 viewBox="0 0 491.52 491.52" style="enable-background:new 0 0 491.52 491.52;" xml:space="preserve">
<polygon style="fill:#EBF0F3;" points="253.739,491.52 261.972,464.629 309.977,328.109 312.753,294.25 293.228,265.696 
	191.446,265.696 165.972,303.257 201.332,491.52 "/>
<rect x="191.283" y="228.024" style="fill:#F6C358;" width="102.062" height="88.412"/>
<polygon style="fill:#E56353;" points="224.292,316.439 211.025,336.576 224.292,356.714 260.38,356.714 273.647,336.576 
	260.38,316.439 "/>
<g>
	<polygon style="fill:#E1E6E9;" points="171.916,294.251 191.448,265.696 231.432,316.31 199.184,372.813 	"/>
	<polygon style="fill:#E1E6E9;" points="318.182,292.143 293.224,265.696 253.24,316.31 281.599,365.999 	"/>
</g>
<polygon style="fill:#D15241;" points="277.561,491.52 260.382,356.714 224.293,356.714 207.105,491.52 "/>
<path style="fill:#3A556A;" d="M454.139,395.01c0,0-7.46-48.92-57.205-61.359l-19.138-4.427
	c-15.659-3.625-30.175-11.096-42.231-21.74l-17.381-15.342l-0.58,1.834L250.769,491.52h221.973L454.139,395.01z"/>
<path style="fill:#2F4859;" d="M262.86,491.52c23.4-42.451,54.568-91.529,83.856-113.576c0,0-9.877-11.335-26.476-18.917
	c0,0,24.956-6.228,33.69-13.708c0,0-16.353-36.708-35.746-53.176c0,0-59.199,107.568-82.977,199.377H262.86z"/>
<path style="fill:#3A556A;" d="M173.916,293.978l-0.58-1.834l-17.381,15.342c-12.056,10.643-26.572,18.115-42.24,21.74l-19.13,4.427
	C44.841,346.09,37.381,395.01,37.381,395.01l-18.602,96.51h221.973L173.916,293.978z"/>
<path style="fill:#2F4859;" d="M228.657,491.52c-23.4-42.451-54.568-91.529-83.856-113.576c0,0,9.877-11.335,26.476-18.917
	c0,0-24.956-6.228-33.69-13.708c0,0,16.353-36.708,35.746-53.176c0,0,59.199,107.568,82.977,199.377H228.657z"/>
<ellipse style="fill:#FCD462;" cx="245.76" cy="133.888" rx="133.786" ry="133.888"/>
<ellipse style="fill:#F6C358;" cx="245.76" cy="133.888" rx="111.452" ry="111.529"/>
<path style="fill:#DC8744;" d="M241.162,220.657v-15.286c-19.124-1.951-36.29-9.56-51.48-22.818l15.275-18.217
	c11.716,10.19,23.773,16.257,36.204,18.217v-40.626c-15.769-3.766-27.315-8.725-34.638-14.868
	c-7.323-6.143-10.984-15.252-10.984-27.325s4.206-21.949,12.653-29.634c8.447-7.677,19.43-11.86,32.969-12.559V47.069h13.385v10.676
	c15.343,1.125,29.852,6.356,43.527,15.712l-13.606,19.265c-9.213-6.561-19.175-10.608-29.921-12.15v39.365h0.63
	c16.042,3.775,27.826,8.87,35.353,15.286c7.544,6.424,11.307,15.746,11.307,27.956c0,12.218-4.325,22.17-12.976,29.839
	c-8.651,7.685-20.078,11.869-34.314,12.568v15.073H241.162z M226.398,85.496c-3.559,3.136-5.33,7.046-5.33,11.724
	s1.396,8.376,4.189,11.094c2.776,2.727,8.089,5.342,15.905,7.856V79.941C234.878,80.503,229.957,82.352,226.398,85.496z
	 M270.453,177.313c3.9-3.204,5.858-7.251,5.858-12.142c0-4.882-1.533-8.759-4.598-11.622c-3.082-2.863-8.804-5.547-17.166-8.06
	v37.686C261.24,182.485,266.536,180.525,270.453,177.313z"/>
<g>
</g>
<g>
</g>
<g>
</g>
<g>
</g>
<g>
</g>
<g>
</g>
<g>
</g>
<g>
</g>
<g>
</g>
<g>
</g>
<g>
</g>
<g>
</g>
<g>
</g>
<g>
</g>
<g>
</g>
</svg>
