<?xml version="1.0" encoding="iso-8859-1"?>
<!-- Generator: Adobe Illustrator 19.0.0, SVG Export Plug-In . SVG Version: 6.00 Build 0)  -->
<svg version="1.1" id="Layer_1" xmlns="http://www.w3.org/2000/svg" xmlns:xlink="http://www.w3.org/1999/xlink" x="0px" y="0px"
	 viewBox="0 0 511.995 511.995" style="enable-background:new 0 0 511.995 511.995;" xml:space="preserve">
<circle style="fill:#E6E6E6;" cx="255.997" cy="255.997" r="255.997"/>
<path style="fill:#CCCCCC;" d="M510.731,281.367c-11.838,121.13-108.235,217.526-229.364,229.364L177.361,406.725L336.33,106.966
	l174.612,174.612L510.731,281.367z"/>
<path style="fill:#006775;" d="M179.687,104.853h152.839c2.452,0,4.44,1.987,4.44,4.44v293.629c0,2.452-1.987,4.44-4.44,4.44
	H179.687c-2.452,0-4.44-1.987-4.44-4.44v-293.63C175.247,106.84,177.234,104.853,179.687,104.853z"/>
<path style="fill:#FFFFFF;" d="M186.24,145.652H325.76c1.868,0,3.382,1.514,3.382,3.382v214.144c0,1.868-1.514,3.382-3.382,3.382
	H186.24c-1.868,0-3.382-1.514-3.382-3.382V149.034C182.857,147.166,184.371,145.652,186.24,145.652z"/>
<path style="fill:#EBECEC;" d="M219.217,123.455h73.565c1.634,0,2.96,1.325,2.96,2.96v0.211c0,1.635-1.325,2.96-2.96,2.96h-73.565
	c-1.634,0-2.96-1.325-2.96-2.96v-0.211C216.258,124.78,217.583,123.455,219.217,123.455z"/>
<circle style="fill:#D9DADA;" cx="255.997" cy="388.339" r="12.895"/>
<g>
	<rect x="188.776" y="151.783" style="fill:#00CC96;" width="134.663" height="34.251"/>
	<rect x="280.312" y="191.738" style="fill:#00CC96;" width="43.337" height="34.251"/>
	<path style="fill:#00CC96;" d="M188.776,191.947h80.753v6.342h-80.753V191.947z M188.776,241.202h80.753v6.342h-80.753V241.202z
		 M188.776,228.941h80.753v6.342h-80.753V228.941z M188.776,216.68h80.753v6.342h-80.753V216.68z M188.776,204.42h80.753v6.342
		h-80.753V204.42z"/>
</g>
<path style="fill:#FBBE00;" d="M266.147,269.952c3.171,0.846,6.342,2.114,9.09,3.805l9.935-8.033l12.261,12.261l-8.033,9.935
	c1.691,2.748,2.96,5.919,3.805,9.09l12.684,1.269v17.546l-12.684,1.269c-0.846,3.171-2.114,6.342-3.805,9.09l8.033,9.935
	l-12.261,12.261l-9.935-8.033c-2.748,1.691-5.919,2.96-9.09,3.805l-1.269,12.684h-17.546l-1.269-12.684
	c-3.171-0.846-6.342-2.114-9.09-3.805l-9.935,8.033l-12.261-12.261l8.033-9.935c-1.691-2.748-2.96-5.919-3.805-9.09l-12.684-1.269
	v-17.546l12.684-1.269c0.846-3.171,2.114-6.342,3.805-9.09l-8.033-9.935l12.261-12.261l9.935,8.033
	c2.748-1.691,5.919-2.96,9.09-3.805l1.269-12.684h17.546L266.147,269.952z M256.212,286.863c11.204,0,20.293,9.09,20.293,20.293
	c0,11.204-9.09,20.293-20.293,20.293c-11.204,0-20.293-9.09-20.293-20.293C235.917,295.954,245.008,286.863,256.212,286.863z"/>
<path style="fill:#E7A20B;" d="M266.147,269.952c3.171,0.846,6.342,2.114,9.09,3.805l9.935-8.033l12.261,12.261l-8.033,9.935
	c1.691,2.748,2.96,5.919,3.805,9.09l12.684,1.269v17.546l-12.684,1.269c-0.846,3.171-2.114,6.342-3.805,9.09l8.033,9.935
	l-12.261,12.261l-9.935-8.033c-2.748,1.691-5.919,2.96-9.09,3.805l-1.269,12.684h-8.667v-29.595l0,0
	c11.204,0,20.293-9.09,20.293-20.293s-9.09-20.293-20.293-20.293l0,0v-29.595h8.667l1.269,12.684L266.147,269.952L266.147,269.952z"
	/>
<g>
</g>
<g>
</g>
<g>
</g>
<g>
</g>
<g>
</g>
<g>
</g>
<g>
</g>
<g>
</g>
<g>
</g>
<g>
</g>
<g>
</g>
<g>
</g>
<g>
</g>
<g>
</g>
<g>
</g>
</svg>
